<svg xmlns:xlink="http://www.w3.org/1999/xlink" class="pvNn7t1fpq3pZDIu4vA9" width="114" role="img" height="30" viewBox="0 0 114 30" fill="none" xmlns="http://www.w3.org/2000/svg"><title id="spotify-premium-logo-icon" fill="none">Spotify logo</title><path fill-rule="evenodd" clip-rule="evenodd" d="M37.7835 10.7851C37.7835 10.6921 37.86 10.6156 37.9545 10.6156L40.1039 10.6246C41.8485 10.6246 42.849 11.4421 42.849 12.9076C42.849 14.2486 41.745 15.1501 40.1039 15.1501L37.9545 15.1411C37.86 15.1411 37.7835 15.0646 37.7835 14.9701V10.7851ZM40.296 8.11502L35.232 8.10602C35.1375 8.10602 35.061 8.18252 35.061 8.27552V21.8085C35.061 21.903 35.1375 21.9795 35.232 21.9795H37.614C37.707 21.9795 37.7835 21.903 37.7835 21.8085V17.631L40.026 17.64C43.4175 17.64 45.6105 15.759 45.6105 12.81C45.6105 9.95852 43.524 8.11502 40.296 8.11502Z" fill="#1ED760"></path><path fill-rule="evenodd" clip-rule="evenodd" d="M58.4025 13.4759C59.9115 13.4759 60.6195 14.6519 60.7964 15.8174H55.956C56.217 14.3879 57.1605 13.4759 58.4025 13.4759ZM58.4218 11.217C55.4805 11.217 53.262 13.5765 53.262 16.704V16.743C53.262 19.911 55.5375 22.2105 58.6725 22.2105C60.264 22.2105 61.599 21.6705 62.6473 20.604C62.718 20.5305 62.8723 20.355 62.9775 20.2335C63.039 20.163 63.0315 20.058 62.961 19.995L61.5795 18.7695C61.5165 18.714 61.4235 18.714 61.362 18.7695C61.212 18.9075 60.957 19.14 60.93 19.161C60.24 19.7115 59.553 19.953 58.7115 19.953C57.2985 19.953 56.268 19.098 55.98 17.7075H63.4305L63.4485 17.4975C63.4663 17.28 63.4831 17.079 63.4831 16.878C63.4831 14.061 61.9185 11.217 58.4218 11.217Z" fill="#1ED760"></path><path fill-rule="evenodd" clip-rule="evenodd" d="M76.7895 11.217C75.414 11.217 74.289 11.76 73.3575 12.876C72.7245 11.8035 71.6474 11.217 70.296 11.217C68.8529 11.217 67.968 11.9145 67.356 12.645V11.5995C67.356 11.5065 67.2795 11.43 67.1865 11.43H64.8435C64.749 11.43 64.6724 11.5065 64.6724 11.5995V21.8085C64.6724 21.903 64.749 21.9795 64.8435 21.9795H67.1865C67.2795 21.9795 67.356 21.903 67.356 21.8085V16.0665C67.356 14.622 68.1465 13.6875 69.3675 13.6875C70.5719 13.6875 71.2635 14.5275 71.2635 15.99V21.8085C71.2635 21.903 71.34 21.9795 71.433 21.9795H73.776C73.8705 21.9795 73.9469 21.903 73.9469 21.8085V16.047C73.9469 14.5695 74.6985 13.6875 75.9585 13.6875C77.5245 13.6875 77.8529 14.9505 77.8529 16.0095V21.8085C77.8529 21.903 77.9295 21.9795 78.024 21.9795H80.367C80.4615 21.9795 80.5365 21.903 80.5365 21.8085V15.294C80.5365 12.741 79.1355 11.217 76.7895 11.217Z" fill="#1ED760"></path><path fill-rule="evenodd" clip-rule="evenodd" d="M93.0376 17.361C93.0376 18.795 92.2021 19.7205 90.9106 19.7205C89.6131 19.7205 88.8991 18.897 88.8991 17.4V11.5995C88.8991 11.5065 88.8226 11.43 88.7279 11.43H86.3849C86.2921 11.43 86.2156 11.5065 86.2156 11.5995V18.096C86.2156 20.622 87.6736 22.191 90.0211 22.191C91.2421 22.191 92.2321 21.7155 93.0376 20.7405V21.8085C93.0376 21.903 93.1141 21.9795 93.2071 21.9795H95.5501C95.6446 21.9795 95.7211 21.903 95.7211 21.8085V11.5995C95.7211 11.5065 95.6446 11.43 95.5501 11.43H93.2071C93.1141 11.43 93.0376 11.5065 93.0376 11.5995V17.361Z" fill="#1ED760"></path><path fill-rule="evenodd" clip-rule="evenodd" d="M109.308 11.217C107.934 11.217 106.808 11.76 105.876 12.876C105.243 11.8035 104.166 11.217 102.815 11.217C101.373 11.217 100.487 11.9145 99.876 12.6435V11.5995C99.876 11.5065 99.7995 11.43 99.705 11.43H97.362C97.269 11.43 97.1925 11.5065 97.1925 11.5995V21.8085C97.1925 21.903 97.269 21.9795 97.362 21.9795H99.705C99.7995 21.9795 99.876 21.903 99.876 21.8085V16.0665C99.876 14.622 100.665 13.6875 101.888 13.6875C103.092 13.6875 103.782 14.5275 103.782 15.99V21.8085C103.782 21.903 103.859 21.9795 103.953 21.9795H106.296C106.389 21.9795 106.466 21.903 106.466 21.8085V16.047C106.466 14.5695 107.217 13.6875 108.477 13.6875C110.045 13.6875 110.373 14.9505 110.373 16.0095V21.8085C110.373 21.903 110.45 21.9795 110.543 21.9795H112.886C112.98 21.9795 113.057 21.903 113.057 21.8085V15.294C113.057 12.741 111.656 11.217 109.308 11.217Z" fill="#1ED760"></path><path fill-rule="evenodd" clip-rule="evenodd" d="M52.7354 11.232H52.4204C51.0464 11.2425 49.9229 11.919 49.1909 13.167V11.5995C49.1909 11.5065 49.1144 11.43 49.0199 11.43H46.6769C46.5824 11.43 46.5074 11.5065 46.5074 11.5995V21.8085C46.5074 21.903 46.5824 21.9795 46.6769 21.9795H49.0199C49.1144 21.9795 49.1909 21.903 49.1909 21.8085V17.922C49.1909 15.5085 50.3533 14.106 52.3859 14.0565L52.3889 14.055H52.7354C52.8119 14.055 52.8734 13.9935 52.8734 13.9155V11.3715C52.8734 11.295 52.8119 11.232 52.7354 11.232Z" fill="#1ED760"></path><path fill-rule="evenodd" clip-rule="evenodd" d="M84.5339 11.4975H82.2195C82.1265 11.4975 82.05 11.574 82.05 11.667V21.768C82.05 21.8625 82.1265 21.9375 82.2195 21.9375H84.5339C84.6285 21.9375 84.7035 21.8625 84.7035 21.768V11.667C84.7035 11.574 84.6285 11.4975 84.5339 11.4975Z" fill="#1ED760"></path><path fill-rule="evenodd" clip-rule="evenodd" d="M83.388 6.8985C82.4715 6.8985 81.7275 7.641 81.7275 8.5575C81.7275 9.4755 82.4715 10.2195 83.388 10.2195C84.306 10.2195 85.0485 9.4755 85.0485 8.5575C85.0485 7.641 84.306 6.8985 83.388 6.8985Z" fill="#1ED760"></path><path fill-rule="evenodd" clip-rule="evenodd" d="M23.8725 13.2975C19.038 10.4265 11.0625 10.1625 6.44685 11.5635C5.7045 11.7885 4.9215 11.37 4.6965 10.629C4.4715 9.88648 4.89 9.10348 5.6325 8.87848C10.9305 7.26898 19.7385 7.58098 25.305 10.884C25.9723 11.28 26.19 12.141 25.7955 12.807C25.3995 13.473 24.5385 13.6935 23.8725 13.2975ZM23.715 17.55C23.376 18.1005 22.656 18.273 22.1055 17.9355C18.075 15.4575 11.9279 14.7405 7.15953 16.188C6.54003 16.374 5.88753 16.026 5.70003 15.408C5.51253 14.79 5.86203 14.1375 6.48003 13.95C11.9279 12.297 18.7005 13.098 23.3295 15.9435C23.88 16.281 24.0525 17.001 23.715 17.55ZM21.8789 21.6345C21.609 22.077 21.0345 22.215 20.5935 21.9465C17.0715 19.794 12.6375 19.3065 7.41602 20.5005C6.91352 20.616 6.41102 20.2995 6.29702 19.797C6.18152 19.293 6.49502 18.792 7.00052 18.678C12.714 17.3715 17.6159 17.934 21.5685 20.349C22.0095 20.619 22.149 21.195 21.8789 21.6345ZM15 0C6.7155 0 0 6.7155 0 15C0 23.2845 6.7155 30 15 30C23.2845 30 30 23.2845 30 15C30 6.7155 23.2845 0 15 0Z" fill="#1ED760"></path></svg>